<svg id="Layer_1" data-name="Layer 1" xmlns="http://www.w3.org/2000/svg" xmlns:xlink="http://www.w3.org/1999/xlink" viewBox="0 0 2000 2000"><defs><style>.cls-1,.cls-3{fill:none;stroke-miterlimit:10;stroke-width:20px;}.cls-1{stroke:url(#linear-gradient);}.cls-2{fill:url(#linear-gradient-2);}.cls-3{stroke:url(#linear-gradient-3);}.cls-4{fill:url(#linear-gradient-4);}.cls-5{fill:url(#linear-gradient-5);}.cls-6{font-size:295.96px;fill:#fff;font-family:CoolveticaCondensedRg-Regular, Coolvetica;}.cls-7{letter-spacing:-0.02em;}</style><linearGradient id="linear-gradient" x1="608.87" y1="877.08" x2="848.73" y2="1116.95" gradientUnits="userSpaceOnUse"><stop offset="0" stop-color="#39b54a"/><stop offset="1" stop-color="#006838"/></linearGradient><linearGradient id="linear-gradient-2" x1="749.81" y1="1151.48" x2="786.82" y2="1151.48" gradientUnits="userSpaceOnUse"><stop offset="0" stop-color="#0b60ae"/><stop offset="1" stop-color="#0b5fad"/></linearGradient><linearGradient id="linear-gradient-3" x1="737.58" y1="936.63" x2="913.01" y2="1112.05" gradientUnits="userSpaceOnUse"><stop offset="0" stop-color="#00aeef"/><stop offset="1" stop-color="#2e3192"/></linearGradient><linearGradient id="linear-gradient-4" x1="772.95" y1="1218.07" x2="809.96" y2="1218.07" gradientUnits="userSpaceOnUse"><stop offset="0" stop-color="#00aeef" stop-opacity="0"/><stop offset="0" stop-color="#2e3192"/></linearGradient><linearGradient id="linear-gradient-5" x1="756.45" y1="874.86" x2="782.62" y2="901.03" gradientUnits="userSpaceOnUse"><stop offset="0" stop-color="#39b54a"/><stop offset="0.01" stop-color="#006838"/></linearGradient></defs><path class="cls-1" d="M743.82,756.28,496.08,1006l214.77,214.77.21-252.14a12.81,12.81,0,0,0-12.81-12.82H661.06a27.81,27.81,0,0,1-27.8-28.44l.23-10.17a29.76,29.76,0,0,1,29.76-29.08L766,888"/><circle class="cls-2" cx="768.31" cy="1151.48" r="18.5"/><path class="cls-3" d="M799.56,1211.36,1000,1005.63,845.7,845.94a2.28,2.28,0,0,0-3.92,1.63l1.78,91.24a16.31,16.31,0,0,1-16.3,16.63h-43a14.72,14.72,0,0,0-14.72,14.72l-.47,170.54"/><circle class="cls-4" cx="791.45" cy="1218.07" r="18.5"/><circle class="cls-5" cx="769.54" cy="887.95" r="18.5"/></svg>